<?xml version="1.0" encoding="utf-8"?>
<!-- Generator: Adobe Illustrator 23.0.0, SVG Export Plug-In . SVG Version: 6.00 Build 0)  -->
<svg version="1.1" id="Layer_3" xmlns="http://www.w3.org/2000/svg" xmlns:xlink="http://www.w3.org/1999/xlink" x="0px" y="0px"
	 viewBox="0 0 700 415" enable-background="new 0 0 700 415" xml:space="preserve">
<g>
	<polygon fill="#2DA7CB" points="84.1,171.8 84.1,166 77.3,159.3 70.5,166 70.5,171.8 75.3,167 75.3,281.4 70.5,276.6 70.5,282.4 
		77.3,289.2 84.1,282.4 84.1,276.6 79.3,281.4 79.3,167 	"/>
	<polygon fill="#71C492" points="356.8,171.8 356.8,166 350,159.3 343.2,166 343.2,171.8 348,167 348,281.4 343.2,276.6 
		343.2,282.4 350,289.2 356.8,282.4 356.8,276.6 352,281.4 352,167 	"/>
	<polygon fill="#AF7BAF" points="629.5,171.8 629.5,166 622.7,159.3 615.9,166 615.9,171.8 620.7,167 620.7,281.4 615.9,276.6 
		615.9,282.4 622.7,289.2 629.5,282.4 629.5,276.6 624.7,281.4 624.7,167 	"/>
	<polygon fill="#2DA7CB" points="321.5,279.9 316.5,277.1 318.3,283.6 110.9,166.3 117.4,164.5 112.4,161.7 103.2,164.3 
		105.8,173.5 110.8,176.3 109,169.8 316.4,287.1 309.8,288.9 314.9,291.7 324.1,289.2 	"/>
	<polygon fill="#71C492" points="314.8,154.8 309.8,157.6 316.4,159.4 108.9,278.6 110.7,272 105.7,274.9 103.2,284.2 112.5,286.7 
		117.4,283.8 110.9,282 318.4,162.9 316.6,169.4 321.6,166.5 324.1,157.3 	"/>
	<polygon fill="#71C492" points="594.3,274.9 589.3,272 591.1,278.6 383.6,159.4 390.2,157.6 385.2,154.8 375.9,157.3 378.4,166.5 
		383.4,169.4 381.6,162.9 589.1,282 582.6,283.8 587.5,286.7 596.8,284.2 	"/>
	<polygon fill="#2DA7CB" points="561.4,280.7 555.9,279 559.1,285 137.1,154.6 143.1,151.5 137.6,149.8 129.1,154.3 133.6,162.7 
		139.1,164.4 135.9,158.5 557.9,288.8 551.9,291.9 557.4,293.6 565.9,289.2 	"/>
	<polygon fill="#AF7BAF" points="587.6,161.7 582.6,164.5 589.1,166.3 381.7,283.6 383.5,277.1 378.5,279.9 375.9,289.2 
		385.1,291.7 390.2,288.9 383.6,287.1 591,169.8 589.2,176.3 594.2,173.5 596.8,164.3 	"/>
	<polygon fill="#AF7BAF" points="562.4,149.8 556.9,151.5 562.9,154.6 140.9,285 144.1,279 138.6,280.7 134.1,289.2 142.6,293.6 
		148.1,291.9 142.1,288.8 564.1,158.5 560.9,164.4 566.4,162.7 570.9,154.3 	"/>
</g>
<path fill="#707070" d="M146.5,123.6V40.8c0-3.6-2.9-6.5-6.5-6.5H15.3c-3.6,0-6.5,2.9-6.5,6.5v82.8H0c0.8,5.9,4.9,10.5,9.8,10.5h135
	c4.9,0,9-4.6,9.8-10.5C154.6,123.6,146.5,123.6,146.5,123.6z M139.1,123.6h-38.9c0,2.4-2,4.4-4.4,4.4h-37c-2.4,0-4.4-2-4.4-4.4H16.2
	V41.8h122.9V123.6z"/>
<g enable-background="new    ">
	<path fill="#707070" d="M48.8,10.1c0-4.6,2.5-7.4,6.6-7.4c3.3,0,5.9,2.2,6.1,5.3h-2.9c-0.3-1.6-1.6-2.7-3.2-2.7
		c-2.2,0-3.6,1.8-3.6,4.8s1.4,4.8,3.6,4.8c1.7,0,3-1,3.2-2.5h2.9c-0.2,3-2.7,5.1-6.1,5.1C51.3,17.5,48.8,14.7,48.8,10.1z"/>
	<path fill="#707070" d="M64,2.3h2.8v14.9H64V2.3z"/>
	<path fill="#707070" d="M69.6,3.4c0-0.8,0.7-1.4,1.7-1.4c1,0,1.7,0.6,1.7,1.4c0,0.8-0.7,1.4-1.7,1.4C70.2,4.9,69.6,4.3,69.6,3.4z
		 M69.8,6.4h2.8v10.8h-2.8V6.4z"/>
	<path fill="#707070" d="M85.1,14.1c-0.4,2-2.3,3.3-4.9,3.3c-3.3,0-5.2-2.1-5.2-5.6c0-3.5,2-5.7,5.2-5.7c3.2,0,5,2,5,5.4v0.9h-7.4
		v0.1c0,1.6,1,2.6,2.5,2.6c1.1,0,1.9-0.4,2.2-1.1H85.1z M77.9,10.6h4.6c-0.1-1.4-0.9-2.3-2.2-2.3C78.9,8.3,77.9,9.2,77.9,10.6z"/>
	<path fill="#707070" d="M87.6,6.4h2.8v1.7h0.2c0.5-1.2,1.6-2,3.2-2c2.4,0,3.7,1.5,3.7,4v7h-2.8v-6.3c0-1.5-0.6-2.3-2-2.3
		c-1.3,0-2.1,0.9-2.1,2.3v6.2h-2.8V6.4z"/>
	<path fill="#707070" d="M103.8,3.8v2.7h2.2v2.2h-2.2v4.8c0,0.9,0.4,1.4,1.4,1.4c0.4,0,0.6,0,0.8,0v2.2c-0.4,0.1-0.9,0.1-1.4,0.1
		c-2.6,0-3.7-0.8-3.7-2.9V8.7h-1.7V6.5h1.7V3.8H103.8z"/>
</g>
<path fill="#707070" d="M419.2,123.6V40.8c0-3.6-2.9-6.5-6.5-6.5H288c-3.6,0-6.5,2.9-6.5,6.5v82.8h-8.7c0.8,5.9,4.9,10.5,9.8,10.5
	h135c4.9,0,9-4.6,9.8-10.5C427.4,123.6,419.2,123.6,419.2,123.6z M411.8,123.6h-38.9c0,2.4-2,4.4-4.4,4.4h-36.9
	c-2.4,0-4.4-2-4.4-4.4H289V41.8h122.9v81.8C411.9,123.6,411.8,123.6,411.8,123.6z"/>
<g enable-background="new    ">
	<path fill="#707070" d="M321.6,10.1c0-4.6,2.5-7.4,6.6-7.4c3.3,0,5.9,2.2,6.1,5.3h-2.9c-0.3-1.6-1.6-2.7-3.2-2.7
		c-2.2,0-3.6,1.8-3.6,4.8s1.4,4.8,3.6,4.8c1.7,0,3-1,3.2-2.5h2.9c-0.2,3-2.7,5.1-6.1,5.1C324.1,17.5,321.6,14.7,321.6,10.1z"/>
	<path fill="#707070" d="M336.8,2.3h2.8v14.9h-2.8V2.3z"/>
	<path fill="#707070" d="M342.4,3.4c0-0.8,0.7-1.4,1.7-1.4c1,0,1.7,0.6,1.7,1.4c0,0.8-0.7,1.4-1.7,1.4C343,4.9,342.4,4.3,342.4,3.4z
		 M342.6,6.4h2.8v10.8h-2.8V6.4z"/>
	<path fill="#707070" d="M357.9,14.1c-0.4,2-2.3,3.3-4.9,3.3c-3.3,0-5.2-2.1-5.2-5.6c0-3.5,2-5.7,5.2-5.7c3.2,0,5,2,5,5.4v0.9h-7.4
		v0.1c0,1.6,1,2.6,2.5,2.6c1.1,0,1.9-0.4,2.2-1.1H357.9z M350.7,10.6h4.6c-0.1-1.4-0.9-2.3-2.2-2.3C351.7,8.3,350.8,9.2,350.7,10.6z
		"/>
	<path fill="#707070" d="M360.4,6.4h2.8v1.7h0.2c0.5-1.2,1.6-2,3.2-2c2.4,0,3.7,1.5,3.7,4v7h-2.8v-6.3c0-1.5-0.6-2.3-2-2.3
		c-1.3,0-2.1,0.9-2.1,2.3v6.2h-2.8V6.4z"/>
	<path fill="#707070" d="M376.6,3.8v2.7h2.2v2.2h-2.2v4.8c0,0.9,0.4,1.4,1.4,1.4c0.4,0,0.6,0,0.8,0v2.2c-0.4,0.1-0.9,0.1-1.4,0.1
		c-2.6,0-3.7-0.8-3.7-2.9V8.7H372V6.5h1.7V3.8H376.6z"/>
</g>
<path fill="#707070" d="M692,123.6V40.8c0-3.6-2.9-6.5-6.5-6.5H560.7c-3.6,0-6.5,2.9-6.5,6.5v82.8h-8.7c0.8,5.9,4.9,10.5,9.8,10.5
	h135c4.9,0,9-4.6,9.8-10.5C700.1,123.6,692,123.6,692,123.6z M684.5,123.6h-38.9c0,2.4-2,4.4-4.4,4.4h-36.9c-2.4,0-4.4-2-4.4-4.4
	h-38.2V41.8h122.9L684.5,123.6L684.5,123.6z"/>
<g enable-background="new    ">
	<path fill="#707070" d="M594.2,10.1c0-4.6,2.5-7.4,6.6-7.4c3.3,0,5.9,2.2,6.1,5.3h-2.9c-0.3-1.6-1.6-2.7-3.2-2.7
		c-2.2,0-3.6,1.8-3.6,4.8s1.4,4.8,3.6,4.8c1.7,0,3-1,3.2-2.5h2.9c-0.2,3-2.7,5.1-6.1,5.1C596.8,17.5,594.2,14.7,594.2,10.1z"/>
	<path fill="#707070" d="M609.5,2.3h2.8v14.9h-2.8V2.3z"/>
	<path fill="#707070" d="M615.1,3.4c0-0.8,0.7-1.4,1.7-1.4c1,0,1.7,0.6,1.7,1.4c0,0.8-0.7,1.4-1.7,1.4
		C615.7,4.9,615.1,4.3,615.1,3.4z M615.3,6.4h2.8v10.8h-2.8V6.4z"/>
	<path fill="#707070" d="M630.6,14.1c-0.4,2-2.3,3.3-4.9,3.3c-3.3,0-5.2-2.1-5.2-5.6c0-3.5,2-5.7,5.2-5.7c3.2,0,5,2,5,5.4v0.9h-7.4
		v0.1c0,1.6,1,2.6,2.5,2.6c1.1,0,1.9-0.4,2.2-1.1H630.6z M623.4,10.6h4.6c-0.1-1.4-0.9-2.3-2.2-2.3C624.4,8.3,623.4,9.2,623.4,10.6z
		"/>
	<path fill="#707070" d="M633.1,6.4h2.8v1.7h0.2c0.5-1.2,1.6-2,3.2-2c2.4,0,3.7,1.5,3.7,4v7H640v-6.3c0-1.5-0.6-2.3-2-2.3
		c-1.3,0-2.1,0.9-2.1,2.3v6.2h-2.8V6.4z"/>
	<path fill="#707070" d="M649.3,3.8v2.7h2.2v2.2h-2.2v4.8c0,0.9,0.4,1.4,1.4,1.4c0.4,0,0.6,0,0.8,0v2.2c-0.4,0.1-0.9,0.1-1.4,0.1
		c-2.6,0-3.7-0.8-3.7-2.9V8.7h-1.7V6.5h1.7V3.8H649.3z"/>
</g>
<g enable-background="new    ">
	<path fill="#707070" d="M37.3,405.6c0.1,1.1,1.3,1.9,2.9,1.9c1.5,0,2.6-0.7,2.6-1.8c0-0.9-0.7-1.4-2.4-1.8l-1.8-0.4
		c-2.6-0.5-3.8-1.9-3.8-4c0-2.7,2.1-4.4,5.4-4.4c3.1,0,5.3,1.7,5.4,4.2h-2.8c-0.1-1.1-1.2-1.9-2.6-1.9c-1.5,0-2.5,0.7-2.5,1.8
		c0,0.9,0.7,1.4,2.3,1.7l1.7,0.4c2.8,0.6,4.1,1.8,4.1,4c0,2.8-2.2,4.6-5.7,4.6c-3.4,0-5.5-1.7-5.6-4.3H37.3z"/>
	<path fill="#707070" d="M57.9,406.4c-0.4,2-2.3,3.3-4.9,3.3c-3.3,0-5.2-2.1-5.2-5.6c0-3.5,2-5.7,5.2-5.7c3.2,0,5,2,5,5.4v0.9h-7.4
		v0.1c0,1.6,1,2.6,2.5,2.6c1.1,0,1.9-0.4,2.2-1.1H57.9z M50.6,403h4.6c-0.1-1.4-0.9-2.3-2.2-2.3C51.6,400.7,50.7,401.6,50.6,403z"/>
	<path fill="#707070" d="M60.3,398.7H63v1.7h0.2c0.3-1.1,1.4-1.9,2.8-1.9c0.4,0,0.9,0,1.1,0.1v2.6c-0.2-0.1-0.9-0.2-1.3-0.2
		c-1.6,0-2.6,0.9-2.6,2.4v6h-2.8V398.7z"/>
	<path fill="#707070" d="M75.2,409.5H72l-3.7-10.8h3.1l2.2,8h0.2l2.2-8h3L75.2,409.5z"/>
	<path fill="#707070" d="M90,406.4c-0.4,2-2.3,3.3-4.9,3.3c-3.3,0-5.2-2.1-5.2-5.6c0-3.5,2-5.7,5.2-5.7c3.2,0,5,2,5,5.4v0.9h-7.4
		v0.1c0,1.6,1,2.6,2.5,2.6c1.1,0,1.9-0.4,2.2-1.1H90z M82.7,403h4.6c-0.1-1.4-0.9-2.3-2.2-2.3C83.7,400.7,82.8,401.6,82.7,403z"/>
	<path fill="#707070" d="M92.4,398.7h2.8v1.7h0.2c0.3-1.1,1.4-1.9,2.8-1.9c0.4,0,0.9,0,1.1,0.1v2.6c-0.2-0.1-0.9-0.2-1.3-0.2
		c-1.6,0-2.6,0.9-2.6,2.4v6h-2.8V398.7z"/>
</g>
<path fill="#707070" d="M128.6,314.4H4.4c-2.4,0-4.4,2-4.4,4.4v42.5c0,2.4,2,4.4,4.4,4.4h124.2c2.4,0,4.4-2,4.4-4.4v-42.5
	C132.9,316.4,131,314.4,128.6,314.4z M127.9,360.7H5v-41.3h123L127.9,360.7L127.9,360.7z M65,348.1v-16c0-0.8,0.7-1.5,1.5-1.5
	s1.5,0.7,1.5,1.5v16c0,0.8-0.7,1.5-1.5,1.5C65.6,349.6,65,348.9,65,348.1z M76.1,348.1v-16c0-0.8,0.7-1.5,1.5-1.5s1.5,0.7,1.5,1.5
	v16c0,0.8-0.7,1.5-1.5,1.5S76.1,348.9,76.1,348.1z M87.3,348.1v-16c0-0.8,0.7-1.5,1.5-1.5s1.5,0.7,1.5,1.5v16c0,0.8-0.7,1.5-1.5,1.5
	S87.3,348.9,87.3,348.1z M98.4,348.1v-16c0-0.8,0.7-1.5,1.5-1.5s1.5,0.7,1.5,1.5v16c0,0.8-0.7,1.5-1.5,1.5S98.4,348.9,98.4,348.1z
	 M20.4,348.1v-16c0-0.8,0.7-1.5,1.5-1.5s1.5,0.7,1.5,1.5v16c0,0.8-0.7,1.5-1.5,1.5S20.4,348.9,20.4,348.1z M31.5,348.1v-16
	c0-0.8,0.7-1.5,1.5-1.5s1.5,0.7,1.5,1.5v16c0,0.8-0.7,1.5-1.5,1.5S31.5,348.9,31.5,348.1z M42.7,348.1v-16c0-0.8,0.7-1.5,1.5-1.5
	s1.5,0.7,1.5,1.5v16c0,0.8-0.7,1.5-1.5,1.5C43.3,349.6,42.7,348.9,42.7,348.1z M53.8,348.1v-16c0-0.8,0.7-1.5,1.5-1.5
	s1.5,0.7,1.5,1.5v16c0,0.8-0.7,1.5-1.5,1.5S53.8,348.9,53.8,348.1z M109.6,348.1v-16c0-0.8,0.7-1.5,1.5-1.5s1.5,0.7,1.5,1.5v16
	c0,0.8-0.7,1.5-1.5,1.5S109.6,348.9,109.6,348.1z M112.9,372.7c0,1.4-1.1,2.5-2.5,2.5H22.5c-1.4,0-2.5-1.1-2.5-2.5s1.1-2.5,2.5-2.5
	h87.8C111.8,370.2,112.9,371.3,112.9,372.7z"/>
<g enable-background="new    ">
	<path fill="#707070" d="M320.8,405.6c0.1,1.1,1.3,1.9,2.9,1.9c1.5,0,2.6-0.7,2.6-1.8c0-0.9-0.7-1.4-2.4-1.8l-1.8-0.4
		c-2.6-0.5-3.8-1.9-3.8-4c0-2.7,2.1-4.4,5.4-4.4c3.1,0,5.3,1.7,5.4,4.2h-2.8c-0.1-1.1-1.2-1.9-2.6-1.9c-1.5,0-2.5,0.7-2.5,1.8
		c0,0.9,0.7,1.4,2.3,1.7l1.7,0.4c2.8,0.6,4.1,1.8,4.1,4c0,2.8-2.2,4.6-5.7,4.6c-3.4,0-5.5-1.7-5.6-4.3H320.8z"/>
	<path fill="#707070" d="M341.4,406.4c-0.4,2-2.3,3.3-4.9,3.3c-3.3,0-5.2-2.1-5.2-5.6c0-3.5,2-5.7,5.2-5.7c3.2,0,5,2,5,5.4v0.9h-7.4
		v0.1c0,1.6,1,2.6,2.5,2.6c1.1,0,1.9-0.4,2.2-1.1H341.4z M334.1,403h4.6c-0.1-1.4-0.9-2.3-2.2-2.3
		C335.1,400.7,334.2,401.6,334.1,403z"/>
	<path fill="#707070" d="M343.8,398.7h2.8v1.7h0.2c0.3-1.1,1.4-1.9,2.8-1.9c0.4,0,0.9,0,1.1,0.1v2.6c-0.2-0.1-0.9-0.2-1.3-0.2
		c-1.6,0-2.6,0.9-2.6,2.4v6h-2.8V398.7z"/>
	<path fill="#707070" d="M358.7,409.5h-3.2l-3.7-10.8h3.1l2.2,8h0.2l2.2-8h3L358.7,409.5z"/>
	<path fill="#707070" d="M373.5,406.4c-0.4,2-2.3,3.3-4.9,3.3c-3.3,0-5.2-2.1-5.2-5.6c0-3.5,2-5.7,5.2-5.7c3.2,0,5,2,5,5.4v0.9h-7.4
		v0.1c0,1.6,1,2.6,2.5,2.6c1.1,0,1.9-0.4,2.2-1.1H373.5z M366.2,403h4.6c-0.1-1.4-0.9-2.3-2.2-2.3
		C367.2,400.7,366.3,401.6,366.2,403z"/>
	<path fill="#707070" d="M375.9,398.7h2.8v1.7h0.2c0.3-1.1,1.4-1.9,2.8-1.9c0.4,0,0.9,0,1.1,0.1v2.6c-0.2-0.1-0.9-0.2-1.3-0.2
		c-1.6,0-2.6,0.9-2.6,2.4v6h-2.8V398.7z"/>
</g>
<path fill="#707070" d="M412.1,314.4H287.9c-2.4,0-4.4,2-4.4,4.4v42.5c0,2.4,2,4.4,4.4,4.4h124.2c2.4,0,4.4-2,4.4-4.4v-42.5
	C416.5,316.4,414.5,314.4,412.1,314.4z M411.5,360.7h-123v-41.3h123V360.7z M348.5,348.1v-16c0-0.8,0.7-1.5,1.5-1.5s1.5,0.7,1.5,1.5
	v16c0,0.8-0.7,1.5-1.5,1.5S348.5,348.9,348.5,348.1z M359.7,348.1v-16c0-0.8,0.7-1.5,1.5-1.5s1.5,0.7,1.5,1.5v16
	c0,0.8-0.7,1.5-1.5,1.5C360.3,349.6,359.7,348.9,359.7,348.1z M370.8,348.1v-16c0-0.8,0.7-1.5,1.5-1.5s1.5,0.7,1.5,1.5v16
	c0,0.8-0.7,1.5-1.5,1.5S370.8,348.9,370.8,348.1z M382,348.1v-16c0-0.8,0.7-1.5,1.5-1.5s1.5,0.7,1.5,1.5v16c0,0.8-0.7,1.5-1.5,1.5
	C382.6,349.6,382,348.9,382,348.1z M303.9,348.1v-16c0-0.8,0.7-1.5,1.5-1.5s1.5,0.7,1.5,1.5v16c0,0.8-0.7,1.5-1.5,1.5
	S303.9,348.9,303.9,348.1z M315,348.1v-16c0-0.8,0.7-1.5,1.5-1.5s1.5,0.7,1.5,1.5v16c0,0.8-0.7,1.5-1.5,1.5S315,348.9,315,348.1z
	 M326.2,348.1v-16c0-0.8,0.7-1.5,1.5-1.5s1.5,0.7,1.5,1.5v16c0,0.8-0.7,1.5-1.5,1.5S326.2,348.9,326.2,348.1z M337.4,348.1v-16
	c0-0.8,0.7-1.5,1.5-1.5s1.5,0.7,1.5,1.5v16c0,0.8-0.7,1.5-1.5,1.5C338,349.6,337.4,348.9,337.4,348.1z M393.1,348.1v-16
	c0-0.8,0.7-1.5,1.5-1.5s1.5,0.7,1.5,1.5v16c0,0.8-0.7,1.5-1.5,1.5S393.1,348.9,393.1,348.1z M396.4,372.7c0,1.4-1.1,2.5-2.5,2.5
	h-87.8c-1.4,0-2.5-1.1-2.5-2.5s1.1-2.5,2.5-2.5h87.8C395.3,370.2,396.4,371.3,396.4,372.7z"/>
<g enable-background="new    ">
	<path fill="#707070" d="M604.3,405.6c0.1,1.1,1.3,1.9,2.9,1.9c1.5,0,2.6-0.7,2.6-1.8c0-0.9-0.7-1.4-2.4-1.8l-1.8-0.4
		c-2.6-0.5-3.8-1.9-3.8-4c0-2.7,2.1-4.4,5.4-4.4c3.1,0,5.3,1.7,5.4,4.2h-2.8c-0.1-1.1-1.2-1.9-2.6-1.9c-1.5,0-2.5,0.7-2.5,1.8
		c0,0.9,0.7,1.4,2.3,1.7l1.7,0.4c2.8,0.6,4.1,1.8,4.1,4c0,2.8-2.2,4.6-5.7,4.6c-3.4,0-5.5-1.7-5.6-4.3H604.3z"/>
	<path fill="#707070" d="M624.9,406.4c-0.4,2-2.3,3.3-4.9,3.3c-3.3,0-5.2-2.1-5.2-5.6c0-3.5,2-5.7,5.2-5.7c3.2,0,5,2,5,5.4v0.9h-7.4
		v0.1c0,1.6,1,2.6,2.5,2.6c1.1,0,1.9-0.4,2.2-1.1H624.9z M617.6,403h4.6c-0.1-1.4-0.9-2.3-2.2-2.3
		C618.6,400.7,617.7,401.6,617.6,403z"/>
	<path fill="#707070" d="M627.3,398.7h2.8v1.7h0.2c0.3-1.1,1.4-1.9,2.8-1.9c0.4,0,0.9,0,1.1,0.1v2.6c-0.2-0.1-0.9-0.2-1.3-0.2
		c-1.6,0-2.6,0.9-2.6,2.4v6h-2.8V398.7z"/>
	<path fill="#707070" d="M642.2,409.5H639l-3.7-10.8h3.1l2.2,8h0.2l2.2-8h3L642.2,409.5z"/>
	<path fill="#707070" d="M657,406.4c-0.4,2-2.3,3.3-4.9,3.3c-3.3,0-5.2-2.1-5.2-5.6c0-3.5,2-5.7,5.2-5.7c3.2,0,5,2,5,5.4v0.9h-7.4
		v0.1c0,1.6,1,2.6,2.5,2.6c1.1,0,1.9-0.4,2.2-1.1H657z M649.7,403h4.6c-0.1-1.4-0.9-2.3-2.2-2.3C650.7,400.7,649.8,401.6,649.7,403z
		"/>
	<path fill="#707070" d="M659.4,398.7h2.8v1.7h0.2c0.3-1.1,1.4-1.9,2.8-1.9c0.4,0,0.9,0,1.1,0.1v2.6c-0.2-0.1-0.9-0.2-1.3-0.2
		c-1.6,0-2.6,0.9-2.6,2.4v6h-2.8V398.7z"/>
</g>
<path fill="#707070" d="M695.6,314.4H571.4c-2.4,0-4.4,2-4.4,4.4v42.5c0,2.4,2,4.4,4.4,4.4h124.2c2.4,0,4.4-2,4.4-4.4v-42.5
	C700,316.4,698,314.4,695.6,314.4z M695,360.7H572v-41.3h123V360.7z M632,348.1v-16c0-0.8,0.7-1.5,1.5-1.5s1.5,0.7,1.5,1.5v16
	c0,0.8-0.7,1.5-1.5,1.5S632,348.9,632,348.1z M643.2,348.1v-16c0-0.8,0.7-1.5,1.5-1.5s1.5,0.7,1.5,1.5v16c0,0.8-0.7,1.5-1.5,1.5
	S643.2,348.9,643.2,348.1z M654.3,348.1v-16c0-0.8,0.7-1.5,1.5-1.5s1.5,0.7,1.5,1.5v16c0,0.8-0.7,1.5-1.5,1.5
	S654.3,348.9,654.3,348.1z M665.5,348.1v-16c0-0.8,0.7-1.5,1.5-1.5s1.5,0.7,1.5,1.5v16c0,0.8-0.7,1.5-1.5,1.5
	S665.5,348.9,665.5,348.1z M587.4,348.1v-16c0-0.8,0.7-1.5,1.5-1.5s1.5,0.7,1.5,1.5v16c0,0.8-0.7,1.5-1.5,1.5
	C588.1,349.6,587.4,348.9,587.4,348.1z M598.6,348.1v-16c0-0.8,0.7-1.5,1.5-1.5s1.5,0.7,1.5,1.5v16c0,0.8-0.7,1.5-1.5,1.5
	S598.6,348.9,598.6,348.1z M609.7,348.1v-16c0-0.8,0.7-1.5,1.5-1.5s1.5,0.7,1.5,1.5v16c0,0.8-0.7,1.5-1.5,1.5
	S609.7,348.9,609.7,348.1z M620.9,348.1v-16c0-0.8,0.7-1.5,1.5-1.5s1.5,0.7,1.5,1.5v16c0,0.8-0.7,1.5-1.5,1.5
	S620.9,348.9,620.9,348.1z M676.6,348.1v-16c0-0.8,0.7-1.5,1.5-1.5s1.5,0.7,1.5,1.5v16c0,0.8-0.7,1.5-1.5,1.5
	S676.6,348.9,676.6,348.1z M679.9,372.7c0,1.4-1.1,2.5-2.5,2.5h-87.8c-1.4,0-2.5-1.1-2.5-2.5s1.1-2.5,2.5-2.5h87.8
	C678.8,370.2,679.9,371.3,679.9,372.7z"/>
<g>
	<polygon fill="#2D6B9E" points="208.4,221.4 204.3,223.7 208.4,226 212.4,223.7 	"/>
	<polygon fill="#2D6B9E" points="350,224.6 352,225.2 352,224 	"/>
	<polygon fill="#2D6B9E" points="350,220.4 348,219.8 348,221 	"/>
	<polygon fill="#2D6B9E" points="264.3,193.9 259.1,192.3 254.3,195 259.6,196.6 	"/>
	<polygon fill="#505E63" points="487.6,223.7 491.6,226 495.7,223.7 491.6,221.4 	"/>
	<polygon fill="#703F75" points="438,251.8 443.3,253.4 448,250.7 442.8,249 	"/>
	<polygon fill="#505E63" points="352,221 352,219.8 350,220.4 	"/>
	<polygon fill="#505E63" points="348,224 348,225.2 350,224.6 	"/>
	<polygon fill="#703F75" points="252,250.7 256.7,253.4 262,251.8 257.2,249 	"/>
	<polygon fill="#505E63" points="445.7,195 440.9,192.3 435.7,193.9 440.4,196.6 	"/>
	<polygon fill="#703F75" points="352,221 350,220.4 348,221 343.2,222.5 348,224 350,224.6 352,224 356.8,222.5 	"/>
</g>
</svg>
