<?xml version="1.0" encoding="utf-8"?>
<!-- Generator: Adobe Illustrator 23.0.0, SVG Export Plug-In . SVG Version: 6.00 Build 0)  -->
<svg version="1.1" id="Artwork" xmlns="http://www.w3.org/2000/svg" xmlns:xlink="http://www.w3.org/1999/xlink" x="0px" y="0px"
	 viewBox="0 0 700 160" enable-background="new 0 0 700 160" xml:space="preserve">
<g>
	<path fill="#707070" d="M578.1,131.9L578.1,131.9c0.9,0,1.6-0.7,1.6-1.6v-17.6c0-0.9-0.7-1.6-1.6-1.6l0,0l0,0
		c-0.9,0-1.6,0.7-1.6,1.6v17.6C576.5,131.2,577.2,131.9,578.1,131.9L578.1,131.9z"/>
	<path fill="#707070" d="M590.4,131.9L590.4,131.9c0.9,0,1.6-0.7,1.6-1.6v-17.6c0-0.9-0.7-1.6-1.6-1.6l0,0l0,0
		c-0.9,0-1.6,0.7-1.6,1.6v17.6C588.7,131.2,589.5,131.9,590.4,131.9L590.4,131.9z"/>
	<path fill="#707070" d="M695.2,93.4h-31.4h-97.1h-0.6c0,1.9-0.1,3.7-0.4,5.5h0.9h97.1h30.7v45.3h-30.7h-97.1h-31.5v-9
		c-1.8,0.5-3.6,1-5.5,1.3v8.4c0,2.6,2.1,4.8,4.8,4.8h32.2h97.1h31.4c2.6,0,4.8-2.1,4.8-4.8V98.1C700,95.5,697.9,93.4,695.2,93.4z"/>
	<path fill="#707070" d="M675.3,154.5h-24.5h-71.9h-24.5c-1.5,0-2.7,1.2-2.7,2.7s1.2,2.7,2.7,2.7h24.5h71.9h24.5
		c1.5,0,2.7-1.2,2.7-2.7S676.8,154.5,675.3,154.5z"/>
	<path fill="#707070" d="M602.6,131.9L602.6,131.9c0.9,0,1.6-0.7,1.6-1.6v-17.6c0-0.9-0.7-1.6-1.6-1.6l0,0l0,0
		c-0.9,0-1.6,0.7-1.6,1.6v17.6C601,131.2,601.7,131.9,602.6,131.9L602.6,131.9z"/>
	<path fill="#707070" d="M614.8,131.9L614.8,131.9c0.9,0,1.6-0.7,1.6-1.6v-17.6c0-0.9-0.7-1.6-1.6-1.6l0,0l0,0
		c-0.9,0-1.6,0.7-1.6,1.6v17.6C613.2,131.2,613.9,131.9,614.8,131.9L614.8,131.9z"/>
	<path fill="#707070" d="M627.1,131.9L627.1,131.9c0.9,0,1.6-0.7,1.6-1.6v-17.6c0-0.9-0.7-1.6-1.6-1.6l0,0l0,0
		c-0.9,0-1.6,0.7-1.6,1.6v17.6C625.4,131.2,626.2,131.9,627.1,131.9L627.1,131.9z"/>
	<path fill="#707070" d="M553.7,49.9c-0.9,0-1.6,0.7-1.6,1.6v9.8c1.2,1.1,2.2,2.2,3.3,3.4V51.5C555.3,50.6,554.6,49.9,553.7,49.9z"
		/>
	<path fill="#707070" d="M567.5,69.1V51.5c0-0.9-0.7-1.6-1.6-1.6s-1.6,0.7-1.6,1.6v17.6c0,0.9,0.7,1.6,1.6,1.6S567.5,70,567.5,69.1z
		"/>
	<path fill="#707070" d="M565.9,131.9c0.9,0,1.6-0.7,1.6-1.6v-17.6c0-0.9-0.7-1.6-1.6-1.6s-1.6,0.7-1.6,1.6v17.6
		C564.3,131.2,565,131.9,565.9,131.9z"/>
	<path fill="#707070" d="M553.7,131.9c0.9,0,1.6-0.7,1.6-1.6v-8.2c-1,1.2-2.1,2.3-3.3,3.4v4.8C552,131.2,552.8,131.9,553.7,131.9z"
		/>
	<path fill="#707070" d="M651.5,131.9L651.5,131.9c0.9,0,1.6-0.7,1.6-1.6v-17.6c0-0.9-0.7-1.6-1.6-1.6l0,0l0,0
		c-0.9,0-1.6,0.7-1.6,1.6v17.6C649.9,131.2,650.6,131.9,651.5,131.9L651.5,131.9z"/>
	<path fill="#707070" d="M639.3,131.9L639.3,131.9c0.9,0,1.6-0.7,1.6-1.6v-17.6c0-0.9-0.7-1.6-1.6-1.6l0,0l0,0
		c-0.9,0-1.6,0.7-1.6,1.6v17.6C637.7,131.2,638.4,131.9,639.3,131.9L639.3,131.9z"/>
	<path fill="#707070" d="M651.5,70.7L651.5,70.7c0.9,0,1.6-0.7,1.6-1.6V51.5c0-0.9-0.7-1.6-1.6-1.6l0,0l0,0c-0.9,0-1.6,0.7-1.6,1.6
		v17.6C649.9,70,650.6,70.7,651.5,70.7L651.5,70.7z"/>
	<path fill="#707070" d="M627.1,70.7L627.1,70.7c0.9,0,1.6-0.7,1.6-1.6V51.5c0-0.9-0.7-1.6-1.6-1.6l0,0l0,0c-0.9,0-1.6,0.7-1.6,1.6
		v17.6C625.4,70,626.2,70.7,627.1,70.7L627.1,70.7z"/>
	<path fill="#707070" d="M665.4,69.1V51.5c0-0.9-0.7-1.6-1.6-1.6s-1.6,0.7-1.6,1.6v17.6c0,0.9,0.7,1.6,1.6,1.6S665.4,70,665.4,69.1z
		"/>
	<path fill="#707070" d="M677.7,69.1V51.5c0-0.9-0.7-1.6-1.6-1.6s-1.6,0.7-1.6,1.6v17.6c0,0.9,0.7,1.6,1.6,1.6S677.7,70,677.7,69.1z
		"/>
	<path fill="#707070" d="M614.8,70.7L614.8,70.7c0.9,0,1.6-0.7,1.6-1.6V51.5c0-0.9-0.7-1.6-1.6-1.6l0,0l0,0c-0.9,0-1.6,0.7-1.6,1.6
		v17.6C613.2,70,613.9,70.7,614.8,70.7L614.8,70.7z"/>
	<path fill="#707070" d="M639.3,70.7L639.3,70.7c0.9,0,1.6-0.7,1.6-1.6V51.5c0-0.9-0.7-1.6-1.6-1.6l0,0l0,0c-0.9,0-1.6,0.7-1.6,1.6
		v17.6C637.7,70,638.4,70.7,639.3,70.7L639.3,70.7z"/>
	<path fill="#707070" d="M677.7,130.2v-17.6c0-0.9-0.7-1.6-1.6-1.6s-1.6,0.7-1.6,1.6v17.6c0,0.9,0.7,1.6,1.6,1.6
		S677.7,131.2,677.7,130.2z"/>
	<path fill="#707070" d="M695.2,32.2h-31.4h-97.1h-32.2c-2.6,0-4.8,2.1-4.8,4.8v13.3c1.9,0.3,3.7,0.7,5.5,1.3V37.7h31.5h97.1h30.7
		V83h-30.7h-97.1h-1.8c0.4,1.8,0.8,3.6,1,5.5h0.8h97.1h31.4c2.6,0,4.8-2.1,4.8-4.8V37C700,34.3,697.9,32.2,695.2,32.2z"/>
	<path fill="#707070" d="M665.4,130.2v-17.6c0-0.9-0.7-1.6-1.6-1.6s-1.6,0.7-1.6,1.6v17.6c0,0.9,0.7,1.6,1.6,1.6
		S665.4,131.2,665.4,130.2z"/>
	<path fill="#707070" d="M590.4,70.7L590.4,70.7c0.9,0,1.6-0.7,1.6-1.6V51.5c0-0.9-0.7-1.6-1.6-1.6l0,0l0,0c-0.9,0-1.6,0.7-1.6,1.6
		v17.6C588.7,70,589.5,70.7,590.4,70.7L590.4,70.7z"/>
	<path fill="#707070" d="M578.1,70.7L578.1,70.7c0.9,0,1.6-0.7,1.6-1.6V51.5c0-0.9-0.7-1.6-1.6-1.6l0,0l0,0c-0.9,0-1.6,0.7-1.6,1.6
		v17.6C576.5,70,577.2,70.7,578.1,70.7L578.1,70.7z"/>
	<path fill="#707070" d="M602.6,70.7L602.6,70.7c0.9,0,1.6-0.7,1.6-1.6V51.5c0-0.9-0.7-1.6-1.6-1.6l0,0l0,0c-0.9,0-1.6,0.7-1.6,1.6
		v17.6C601,70,601.7,70.7,602.6,70.7L602.6,70.7z"/>
</g>
<g>
	<circle fill="#2DA7CB" cx="177.5" cy="93.4" r="37.7"/>
</g>
<g>
	<circle fill="#2DA7CB" cx="522.5" cy="93.4" r="37.7"/>
</g>
<g>
	<polygon fill="#2DA7CB" points="462.7,95.2 455.5,95.2 461.5,101.2 233.8,101.2 233.8,106.2 461.5,106.2 455.5,112.2 462.7,112.2 
		471.2,103.7 	"/>
	<polygon fill="#2DA7CB" points="244.5,91.5 238.5,85.5 466.2,85.5 466.2,80.5 238.5,80.5 244.5,74.6 237.3,74.6 228.8,83 
		237.3,91.5 	"/>
</g>
<g enable-background="new    ">
	<path fill="#707070" d="M70.4,10.1c0-4.6,2.5-7.4,6.6-7.4c3.3,0,5.9,2.2,6.1,5.3h-2.9c-0.3-1.6-1.6-2.7-3.2-2.7
		c-2.2,0-3.6,1.8-3.6,4.8s1.4,4.8,3.6,4.8c1.7,0,3-1,3.2-2.5h2.9c-0.2,3-2.7,5.1-6.1,5.1C72.9,17.5,70.4,14.7,70.4,10.1z"/>
	<path fill="#707070" d="M85.6,2.3h2.8v14.9h-2.8V2.3z"/>
	<path fill="#707070" d="M91.2,3.4c0-0.8,0.7-1.4,1.7-1.4c1,0,1.7,0.6,1.7,1.4c0,0.8-0.7,1.4-1.7,1.4C91.8,4.9,91.2,4.3,91.2,3.4z
		 M91.4,6.4h2.8v10.8h-2.8V6.4z"/>
	<path fill="#707070" d="M106.7,14.1c-0.4,2-2.3,3.3-4.9,3.3c-3.3,0-5.2-2.1-5.2-5.6c0-3.5,2-5.7,5.2-5.7c3.2,0,5,2,5,5.4v0.9h-7.4
		v0.1c0,1.6,1,2.6,2.5,2.6c1.1,0,1.9-0.4,2.2-1.1H106.7z M99.5,10.6h4.6c-0.1-1.4-0.9-2.3-2.2-2.3C100.5,8.3,99.5,9.2,99.5,10.6z"/>
	<path fill="#707070" d="M109.2,6.4h2.8v1.7h0.2c0.5-1.2,1.6-2,3.2-2c2.4,0,3.7,1.5,3.7,4v7h-2.8v-6.3c0-1.5-0.6-2.3-2-2.3
		c-1.3,0-2.1,0.9-2.1,2.3v6.2h-2.8V6.4z"/>
	<path fill="#707070" d="M125.4,3.8v2.7h2.2v2.2h-2.2v4.8c0,0.9,0.4,1.4,1.4,1.4c0.4,0,0.6,0,0.8,0v2.2c-0.4,0.1-0.9,0.1-1.4,0.1
		c-2.6,0-3.7-0.8-3.7-2.9V8.7h-1.7V6.5h1.7V3.8H125.4z"/>
</g>
<g enable-background="new    ">
	<path fill="#707070" d="M585.6,13.2c0.1,1.1,1.3,1.9,2.9,1.9c1.5,0,2.6-0.7,2.6-1.8c0-0.9-0.7-1.4-2.4-1.8l-1.8-0.4
		c-2.6-0.5-3.8-1.9-3.8-4c0-2.7,2.1-4.4,5.4-4.4c3.1,0,5.3,1.7,5.4,4.2H591c-0.1-1.1-1.2-1.9-2.6-1.9c-1.5,0-2.5,0.7-2.5,1.8
		c0,0.9,0.7,1.4,2.3,1.7l1.7,0.4c2.8,0.6,4.1,1.8,4.1,4c0,2.8-2.2,4.6-5.7,4.6c-3.4,0-5.5-1.7-5.6-4.3H585.6z"/>
	<path fill="#707070" d="M606.2,14.1c-0.4,2-2.3,3.3-4.9,3.3c-3.3,0-5.2-2.1-5.2-5.6c0-3.5,2-5.7,5.2-5.7c3.2,0,5,2,5,5.4v0.9h-7.4
		v0.1c0,1.6,1,2.6,2.5,2.6c1.1,0,1.9-0.4,2.2-1.1H606.2z M598.9,10.6h4.6c-0.1-1.4-0.9-2.3-2.2-2.3C599.9,8.3,599,9.2,598.9,10.6z"
		/>
	<path fill="#707070" d="M608.6,6.4h2.8v1.7h0.2c0.3-1.1,1.4-1.9,2.8-1.9c0.4,0,0.9,0,1.1,0.1v2.6c-0.2-0.1-0.9-0.2-1.3-0.2
		c-1.6,0-2.6,0.9-2.6,2.4v6h-2.8V6.4z"/>
	<path fill="#707070" d="M623.5,17.1h-3.2l-3.7-10.8h3.1l2.2,8h0.2l2.2-8h3L623.5,17.1z"/>
	<path fill="#707070" d="M638.3,14.1c-0.4,2-2.3,3.3-4.9,3.3c-3.3,0-5.2-2.1-5.2-5.6c0-3.5,2-5.7,5.2-5.7c3.2,0,5,2,5,5.4v0.9H631
		v0.1c0,1.6,1,2.6,2.5,2.6c1.1,0,1.9-0.4,2.2-1.1H638.3z M631,10.6h4.6c-0.1-1.4-0.9-2.3-2.2-2.3C632,8.3,631.1,9.2,631,10.6z"/>
	<path fill="#707070" d="M640.7,6.4h2.8v1.7h0.2c0.3-1.1,1.4-1.9,2.8-1.9c0.4,0,0.9,0,1.1,0.1v2.6c-0.2-0.1-0.9-0.2-1.3-0.2
		c-1.6,0-2.6,0.9-2.6,2.4v6h-2.8V6.4z"/>
</g>
<g>
	<path fill="#707070" d="M187.6,135.8c-3.1,0.7-6.3,1.1-9.6,1.2v9.6h-49.8c0,3.1-2.5,5.6-5.6,5.6H75.3c-3.1,0-5.6-2.5-5.6-5.6h-49
		V41.9H178v7.8c3.3,0,6.5,0.4,9.6,1.2V40.7c0-4.6-3.8-8.4-8.4-8.4H19.5c-4.6,0-8.4,3.8-8.4,8.4v105.9H0c1,7.6,6.2,13.4,12.5,13.4
		h172.8c6.3,0,11.5-5.8,12.5-13.4h-10.3v-10.8H187.6z"/>
</g>
<g>
	<path fill="#FFFFFF" d="M164.2,76.5c-2,0-3.4,0.6-4.3,1.7c-0.9,1.1-1.3,2.9-1.3,5.7v1.8c0,2.2-0.3,3.7-0.8,4.5
		c-0.5,0.7-1.3,1.1-2.4,1.1h-0.6v0.6v3v0.6h0.6c1.1,0,1.9,0.4,2.4,1.1c0.5,0.8,0.8,2.3,0.8,4.5v1.8c0,2.8,0.4,4.6,1.3,5.7
		c0.9,1.1,2.4,1.7,4.3,1.7h1.5h0.6v-0.6v-2.4v-0.6h-0.6h-0.6c-1,0-1.6-0.2-2-0.5c-0.2-0.2-0.5-0.8-0.5-3.1v-1.2c0-2.7-0.3-4.6-1-5.9
		c-0.5-1-1.2-1.8-2.2-2.4c1-0.6,1.8-1.4,2.2-2.4c0.6-1.3,1-3.3,1-5.9v-1.2c0-2.3,0.4-3,0.5-3.1c0.3-0.4,1-0.5,2-0.5h0.6h0.6v-0.6
		v-2.4v-0.6h-0.6h-1.5V76.5z"/>
	<path fill="#FFFFFF" d="M177.5,95.3c-0.9,0-1.6,0.3-2.2,0.9c-0.6,0.6-0.9,1.4-0.9,2.3c0,0.8,0.3,1.6,0.9,2.2c0.4,0.5,1,0.8,1.6,1
		c-0.2,0.7-1,1.4-2.2,2l-0.6,0.3l0.3,0.5l0.8,1.6l0.3,0.5l0.5-0.3c3.3-1.7,5-4.1,5-7.1c0-1.1-0.3-2-1-2.8
		C179.3,95.7,178.4,95.3,177.5,95.3z"/>
	<path fill="#FFFFFF" d="M177.5,87.8c0.9,0,1.7-0.3,2.3-0.9s0.9-1.4,0.9-2.3s-0.3-1.6-0.9-2.2c-0.6-0.6-1.4-0.9-2.3-0.9
		c-0.9,0-1.6,0.3-2.2,0.9c-0.6,0.6-0.9,1.4-0.9,2.2c0,0.9,0.3,1.6,0.9,2.2C175.9,87.5,176.6,87.8,177.5,87.8z"/>
	<path fill="#FFFFFF" d="M199.7,91.3c-1.2,0-2.1-0.4-2.5-1.2c-0.5-0.9-0.7-2.4-0.7-4.4v-1.8c0-2.8-0.4-4.6-1.3-5.7
		c-0.9-1.1-2.3-1.7-4.3-1.7h-1.5h-0.6v0.6v2.4v0.6h0.6h0.6c1,0,1.6,0.2,2,0.5c0.2,0.2,0.5,0.8,0.5,3.1V85c0,2.7,0.3,4.6,1,5.9
		c0.5,1,1.2,1.8,2.2,2.4c-1,0.6-1.8,1.4-2.2,2.4c-0.6,1.3-1,3.3-1,5.9v1.2c0,2.3-0.4,3-0.5,3.1c-0.3,0.4-1,0.5-2,0.5h-0.6h-0.6v0.6
		v2.4v0.6h0.6h1.5c2,0,3.4-0.6,4.3-1.7c0.9-1.1,1.3-3,1.3-5.7v-1.8c0-2.2,0.3-3.7,0.8-4.5c0.5-0.7,1.3-1.1,2.4-1.1h0.6v-0.6v-3V91
		h-0.6V91.3z"/>
</g>
<g>
	<path fill="#FFFFFF" d="M509.2,76.5c-2,0-3.4,0.6-4.3,1.7s-1.3,2.9-1.3,5.7v1.8c0,2.2-0.3,3.7-0.8,4.5c-0.5,0.7-1.3,1.1-2.4,1.1
		h-0.6v0.6v3v0.6h0.6c1.1,0,1.9,0.4,2.4,1.1c0.5,0.8,0.8,2.3,0.8,4.5v1.8c0,2.8,0.4,4.6,1.3,5.7s2.4,1.7,4.3,1.7h1.5h0.6v-0.6v-2.4
		v-0.6h-0.6h-0.6c-1,0-1.6-0.2-2-0.5c-0.2-0.2-0.5-0.8-0.5-3.1v-1.2c0-2.7-0.3-4.6-1-5.9c-0.5-1-1.2-1.8-2.2-2.4
		c1-0.6,1.8-1.4,2.2-2.4c0.6-1.3,1-3.3,1-5.9v-1.2c0-2.3,0.4-3,0.5-3.1c0.3-0.4,1-0.5,2-0.5h0.6h0.6v-0.6v-2.4v-0.6h-0.6h-1.5V76.5z
		"/>
	<path fill="#FFFFFF" d="M522.5,95.3c-0.9,0-1.6,0.3-2.2,0.9c-0.6,0.6-0.9,1.4-0.9,2.3c0,0.8,0.3,1.6,0.9,2.2c0.4,0.5,1,0.8,1.6,1
		c-0.2,0.7-1,1.4-2.2,2l-0.6,0.3l0.3,0.5l0.8,1.6l0.3,0.5l0.5-0.3c3.3-1.7,5-4.1,5-7.1c0-1.1-0.3-2-1-2.8
		C524.3,95.7,523.4,95.3,522.5,95.3z"/>
	<path fill="#FFFFFF" d="M522.5,87.8c0.9,0,1.7-0.3,2.3-0.9s0.9-1.4,0.9-2.3s-0.3-1.6-0.9-2.2c-0.6-0.6-1.4-0.9-2.3-0.9
		c-0.9,0-1.6,0.3-2.2,0.9c-0.6,0.6-0.9,1.4-0.9,2.2c0,0.9,0.3,1.6,0.9,2.2C520.9,87.5,521.6,87.8,522.5,87.8z"/>
	<path fill="#FFFFFF" d="M544.7,91.3c-1.2,0-2.1-0.4-2.5-1.2c-0.5-0.9-0.7-2.4-0.7-4.4v-1.8c0-2.8-0.4-4.6-1.3-5.7
		c-0.9-1.1-2.3-1.7-4.3-1.7h-1.5h-0.6v0.6v2.4v0.6h0.6h0.6c1,0,1.6,0.2,2,0.5c0.2,0.2,0.5,0.8,0.5,3.1V85c0,2.7,0.3,4.6,1,5.9
		c0.5,1,1.2,1.8,2.2,2.4c-1,0.6-1.8,1.4-2.2,2.4c-0.6,1.3-1,3.3-1,5.9v1.2c0,2.3-0.4,3-0.5,3.1c-0.3,0.4-1,0.5-2,0.5h-0.6h-0.6v0.6
		v2.4v0.6h0.6h1.5c2,0,3.4-0.6,4.3-1.7c0.9-1.1,1.3-3,1.3-5.7v-1.8c0-2.2,0.3-3.7,0.8-4.5c0.5-0.7,1.3-1.1,2.4-1.1h0.6v-0.6v-3V91
		h-0.6V91.3z"/>
</g>
</svg>
